<svg xmlns="http://www.w3.org/2000/svg" xmlns:xlink="http://www.w3.org/1999/xlink" width="50" zoomAndPan="magnify" viewBox="0 0 37.5 37.499999" height="50" preserveAspectRatio="xMidYMid meet" version="1.0"><defs><clipPath id="2232cc3a19"><path d="M 12.488281 21.019531 L 24.332031 21.019531 L 24.332031 25.894531 L 12.488281 25.894531 Z M 12.488281 21.019531 " clip-rule="nonzero"/></clipPath><clipPath id="b09bec9a77"><path d="M 12.488281 11.101562 L 24.332031 11.101562 L 24.332031 16 L 12.488281 16 Z M 12.488281 11.101562 " clip-rule="nonzero"/></clipPath><clipPath id="0f5558dc17"><path d="M 12.488281 16 L 15 16 L 15 19 L 12.488281 19 Z M 12.488281 16 " clip-rule="nonzero"/></clipPath></defs><path fill="#db7093" d="M 21.609375 13.914062 C 21.609375 13.785156 21.714844 13.683594 21.839844 13.683594 C 21.96875 13.683594 22.070312 13.785156 22.070312 13.914062 C 22.070312 14.152344 22.074219 14.398438 22.082031 14.648438 C 22.101562 15.667969 22.125 16.746094 21.78125 17.699219 C 21.265625 19.140625 20.644531 20.160156 19.976562 20.75 C 19.503906 21.164062 19.007812 21.375 18.503906 21.375 C 18.003906 21.375 17.503906 21.167969 17.035156 20.753906 C 16.367188 20.167969 15.746094 19.152344 15.230469 17.710938 C 14.882812 16.746094 14.90625 15.671875 14.925781 14.648438 C 14.929688 14.398438 14.9375 14.152344 14.933594 13.914062 C 14.933594 13.785156 15.039062 13.683594 15.164062 13.683594 C 15.292969 13.683594 15.394531 13.785156 15.394531 13.914062 C 15.394531 14.160156 15.390625 14.40625 15.386719 14.660156 C 15.367188 15.640625 15.34375 16.671875 15.660156 17.554688 C 16.152344 18.917969 16.730469 19.871094 17.339844 20.40625 C 17.722656 20.746094 18.117188 20.914062 18.503906 20.914062 C 18.894531 20.914062 19.285156 20.746094 19.671875 20.40625 C 20.28125 19.867188 20.855469 18.914062 21.347656 17.546875 C 21.660156 16.667969 21.640625 15.636719 21.621094 14.65625 C 21.613281 14.40625 21.609375 14.160156 21.609375 13.914062 " fill-opacity="1" fill-rule="nonzero"/><path fill="#db7093" d="M 16.785156 20.449219 C 16.804688 20.324219 16.921875 20.238281 17.046875 20.253906 C 17.171875 20.273438 17.261719 20.390625 17.242188 20.515625 L 17.113281 21.40625 L 18.503906 23.375 L 19.890625 21.40625 L 19.761719 20.515625 C 19.746094 20.390625 19.832031 20.273438 19.957031 20.257812 C 20.085938 20.238281 20.199219 20.328125 20.21875 20.453125 L 20.359375 21.429688 C 20.367188 21.488281 20.355469 21.546875 20.320312 21.597656 L 18.695312 23.90625 C 18.679688 23.929688 18.660156 23.949219 18.636719 23.964844 C 18.53125 24.039062 18.386719 24.015625 18.3125 23.910156 L 16.6875 21.597656 C 16.652344 21.550781 16.636719 21.492188 16.644531 21.429688 L 16.785156 20.449219 " fill-opacity="1" fill-rule="nonzero"/><g clip-path="url(#2232cc3a19)"><path fill="#db7093" d="M 20.023438 21.480469 C 19.90625 21.4375 19.84375 21.304688 19.886719 21.1875 C 19.929688 21.066406 20.0625 21.003906 20.183594 21.050781 C 20.328125 21.101562 20.5625 21.1875 20.789062 21.265625 C 23.113281 22.097656 24.148438 22.464844 24.515625 25.636719 C 24.527344 25.765625 24.4375 25.878906 24.3125 25.894531 C 24.300781 25.894531 24.292969 25.894531 24.285156 25.894531 L 12.722656 25.894531 C 12.59375 25.894531 12.488281 25.792969 12.488281 25.664062 C 12.488281 25.652344 12.492188 25.636719 12.492188 25.625 C 12.855469 22.484375 13.90625 22.105469 16.414062 21.195312 C 16.546875 21.148438 16.683594 21.101562 16.824219 21.046875 C 16.945312 21.003906 17.074219 21.066406 17.117188 21.1875 C 17.164062 21.304688 17.101562 21.4375 16.980469 21.480469 C 16.839844 21.53125 16.703125 21.582031 16.574219 21.628906 C 14.320312 22.445312 13.339844 22.800781 12.980469 25.433594 L 24.023438 25.433594 C 23.664062 22.785156 22.707031 22.441406 20.632812 21.699219 C 20.46875 21.644531 20.300781 21.582031 20.023438 21.480469 " fill-opacity="1" fill-rule="nonzero"/></g><g clip-path="url(#b09bec9a77)"><path fill="#db7093" d="M 13.9375 13.148438 L 18.503906 14.707031 L 23.066406 13.148438 L 18.503906 11.589844 Z M 18.429688 15.167969 L 13.152344 13.367188 C 13.085938 13.34375 13.03125 13.292969 13.007812 13.222656 C 12.964844 13.101562 13.03125 12.972656 13.152344 12.929688 L 18.429688 11.128906 C 18.472656 11.113281 18.527344 11.113281 18.574219 11.128906 L 23.855469 12.929688 C 23.921875 12.953125 23.976562 13.003906 24 13.074219 C 24.039062 13.195312 23.976562 13.324219 23.855469 13.367188 L 18.574219 15.167969 C 18.53125 15.183594 18.476562 15.183594 18.429688 15.167969 " fill-opacity="1" fill-rule="nonzero"/></g><path fill="#db7093" d="M 13.125 13.191406 C 13.125 13.066406 13.230469 12.960938 13.355469 12.960938 C 13.484375 12.960938 13.585938 13.066406 13.585938 13.191406 L 13.585938 16.535156 C 13.585938 16.660156 13.484375 16.765625 13.355469 16.765625 C 13.230469 16.765625 13.125 16.660156 13.125 16.535156 L 13.125 13.191406 " fill-opacity="1" fill-rule="nonzero"/><g clip-path="url(#0f5558dc17)"><path fill="#db7093" d="M 13.59375 18.136719 L 13.355469 17.339844 L 13.121094 18.136719 Z M 13.578125 16.46875 L 14.121094 18.289062 C 14.128906 18.3125 14.132812 18.339844 14.132812 18.367188 C 14.132812 18.492188 14.03125 18.597656 13.902344 18.597656 L 12.808594 18.597656 C 12.789062 18.597656 12.765625 18.59375 12.742188 18.585938 C 12.621094 18.550781 12.550781 18.421875 12.589844 18.300781 L 13.132812 16.46875 C 13.15625 16.398438 13.210938 16.335938 13.289062 16.3125 C 13.414062 16.277344 13.542969 16.347656 13.578125 16.46875 " fill-opacity="1" fill-rule="nonzero"/></g><path fill="#db7093" d="M 22.011719 15.628906 C 22.003906 15.636719 19.042969 18.25 15.023438 15.6875 L 15.269531 15.300781 C 19 17.675781 21.703125 15.285156 21.710938 15.28125 L 22.011719 15.628906 " fill-opacity="1" fill-rule="nonzero"/></svg>