<svg xmlns="http://www.w3.org/2000/svg" xmlns:xlink="http://www.w3.org/1999/xlink" width="50" zoomAndPan="magnify" viewBox="0 0 37.5 37.499999" height="50" preserveAspectRatio="xMidYMid meet" version="1.0"><defs><clipPath id="1e76903a16"><path d="M 11.101562 11.40625 L 25.90625 11.40625 L 25.90625 25.46875 L 11.101562 25.46875 Z M 11.101562 11.40625 " clip-rule="nonzero"/></clipPath></defs><g clip-path="url(#1e76903a16)"><path fill="#2f57ef" d="M 18.503906 18.589844 C 19.484375 18.589844 20.285156 17.792969 20.285156 16.808594 C 20.285156 15.828125 19.484375 15.03125 18.503906 15.03125 C 17.523438 15.03125 16.722656 15.828125 16.722656 16.808594 C 16.722656 17.792969 17.523438 18.589844 18.503906 18.589844 Z M 18.503906 15.332031 C 19.320312 15.332031 19.980469 15.996094 19.980469 16.808594 C 19.980469 17.625 19.320312 18.289062 18.503906 18.289062 C 17.6875 18.289062 17.023438 17.625 17.023438 16.808594 C 17.023438 15.996094 17.6875 15.332031 18.503906 15.332031 Z M 21.914062 17.234375 C 21.695312 17.015625 21.339844 17.015625 21.121094 17.234375 L 19.898438 18.457031 C 19.113281 19.179688 17.890625 19.179688 17.109375 18.457031 L 15.882812 17.234375 C 15.667969 17.015625 15.3125 17.015625 15.09375 17.234375 C 14.875 17.449219 14.875 17.804688 15.09375 18.023438 L 16.722656 19.652344 L 16.722656 24.851562 C 16.722656 25.050781 16.800781 25.238281 16.941406 25.378906 C 17.082031 25.519531 17.269531 25.597656 17.46875 25.597656 C 17.648438 25.597656 17.820312 25.53125 17.957031 25.414062 C 18.089844 25.300781 18.179688 25.136719 18.207031 24.960938 L 18.40625 23.550781 L 18.503906 23.027344 L 18.597656 23.550781 L 18.800781 24.960938 C 18.824219 25.136719 18.914062 25.300781 19.050781 25.414062 C 19.1875 25.53125 19.359375 25.597656 19.539062 25.597656 C 19.738281 25.597656 19.925781 25.519531 20.066406 25.378906 C 20.207031 25.238281 20.285156 25.050781 20.285156 24.851562 L 20.285156 19.652344 L 21.914062 18.023438 C 22.128906 17.804688 22.128906 17.449219 21.914062 17.234375 Z M 21.699219 17.808594 L 20.027344 19.480469 C 19.996094 19.511719 19.980469 19.546875 19.980469 19.589844 L 19.980469 24.851562 C 19.980469 24.96875 19.933594 25.082031 19.851562 25.164062 C 19.765625 25.25 19.65625 25.292969 19.539062 25.292969 C 19.429688 25.292969 19.328125 25.257812 19.246094 25.1875 C 19.167969 25.117188 19.113281 25.019531 19.097656 24.917969 L 18.898438 23.507812 C 18.898438 23.503906 18.898438 23.503906 18.898438 23.5 L 18.699219 22.417969 C 18.683594 22.320312 18.601562 22.25 18.503906 22.25 C 18.40625 22.25 18.324219 22.320312 18.308594 22.417969 L 18.109375 23.5 C 18.109375 23.503906 18.109375 23.503906 18.109375 23.507812 L 17.910156 24.917969 C 17.894531 25.019531 17.839844 25.117188 17.757812 25.1875 C 17.679688 25.257812 17.574219 25.292969 17.46875 25.292969 C 17.351562 25.292969 17.238281 25.25 17.15625 25.164062 C 17.070312 25.082031 17.023438 24.96875 17.023438 24.851562 L 17.023438 19.589844 C 17.023438 19.546875 17.007812 19.511719 16.980469 19.480469 L 15.308594 17.808594 C 15.207031 17.707031 15.207031 17.546875 15.308594 17.445312 C 15.40625 17.347656 15.570312 17.347656 15.671875 17.445312 L 16.898438 18.671875 C 16.898438 18.675781 16.902344 18.675781 16.902344 18.679688 C 17.339844 19.082031 17.90625 19.304688 18.503906 19.304688 C 19.097656 19.304688 19.667969 19.082031 20.105469 18.679688 C 20.105469 18.675781 20.105469 18.675781 20.109375 18.671875 L 21.335938 17.445312 C 21.4375 17.347656 21.597656 17.347656 21.699219 17.445312 C 21.796875 17.546875 21.796875 17.707031 21.699219 17.808594 Z M 25.742188 17.558594 C 25.847656 17.453125 25.90625 17.3125 25.90625 17.164062 C 25.90625 17.011719 25.847656 16.871094 25.742188 16.765625 L 24.027344 15.054688 C 23.945312 14.941406 23.816406 14.875 23.675781 14.875 L 23.023438 14.875 C 23.660156 14.605469 24.113281 13.972656 24.113281 13.234375 C 24.113281 12.253906 23.3125 11.453125 22.332031 11.453125 C 21.351562 11.453125 20.550781 12.253906 20.550781 13.234375 C 20.550781 13.972656 21.003906 14.605469 21.640625 14.875 L 20.988281 14.875 C 20.847656 14.875 20.71875 14.941406 20.636719 15.054688 L 20.152344 15.539062 C 20.214844 15.621094 20.269531 15.707031 20.320312 15.796875 L 20.859375 15.257812 C 20.863281 15.253906 20.871094 15.246094 20.875 15.238281 C 20.902344 15.199219 20.941406 15.179688 20.988281 15.179688 L 23.675781 15.179688 C 23.722656 15.179688 23.761719 15.199219 23.789062 15.238281 C 23.792969 15.246094 23.800781 15.253906 23.804688 15.257812 L 25.527344 16.980469 C 25.574219 17.03125 25.601562 17.09375 25.601562 17.164062 C 25.601562 17.230469 25.574219 17.296875 25.527344 17.34375 C 25.480469 17.390625 25.414062 17.417969 25.347656 17.417969 C 25.277344 17.417969 25.214844 17.390625 25.164062 17.34375 L 24.355469 16.53125 C 24.308594 16.484375 24.234375 16.476562 24.175781 16.507812 C 24.117188 16.539062 24.085938 16.605469 24.101562 16.671875 L 25.113281 21.367188 C 25.105469 21.4375 25.050781 21.488281 24.980469 21.488281 L 23.875 21.488281 C 23.792969 21.488281 23.722656 21.558594 23.722656 21.640625 L 23.722656 24.589844 C 23.722656 24.84375 23.519531 25.050781 23.265625 25.050781 C 23.011719 25.050781 22.804688 24.84375 22.804688 24.589844 L 22.804688 21.640625 C 22.804688 21.558594 22.738281 21.488281 22.652344 21.488281 L 22.050781 21.488281 C 21.96875 21.488281 21.902344 21.558594 21.902344 21.640625 L 21.902344 24.589844 C 21.902344 24.84375 21.695312 25.050781 21.441406 25.050781 C 21.1875 25.050781 20.980469 24.84375 20.980469 24.589844 L 20.980469 21.640625 C 20.980469 21.558594 20.914062 21.488281 20.832031 21.488281 L 20.585938 21.488281 L 20.585938 21.792969 L 20.679688 21.792969 L 20.679688 24.589844 C 20.679688 25.011719 21.019531 25.351562 21.441406 25.351562 C 21.859375 25.351562 22.203125 25.011719 22.203125 24.589844 L 22.203125 21.792969 L 22.503906 21.792969 L 22.503906 24.589844 C 22.503906 25.011719 22.84375 25.351562 23.265625 25.351562 C 23.683594 25.351562 24.027344 25.011719 24.027344 24.589844 L 24.027344 21.792969 L 24.980469 21.792969 C 25.21875 21.792969 25.414062 21.597656 25.414062 21.355469 C 25.414062 21.34375 25.414062 21.335938 25.414062 21.324219 L 24.503906 17.109375 L 24.953125 17.558594 C 25.167969 17.773438 25.523438 17.773438 25.742188 17.558594 Z M 20.855469 13.234375 C 20.855469 12.417969 21.515625 11.757812 22.332031 11.757812 C 23.148438 11.757812 23.808594 12.417969 23.808594 13.234375 C 23.808594 14.050781 23.148438 14.710938 22.332031 14.710938 C 21.515625 14.710938 20.855469 14.050781 20.855469 13.234375 Z M 16.488281 16.28125 C 16.445312 16.449219 16.421875 16.628906 16.421875 16.808594 C 16.421875 16.9375 16.433594 17.0625 16.453125 17.183594 L 16.453125 17.375 L 16.152344 17.074219 L 16.152344 16.308594 C 16.152344 16.246094 16.191406 16.191406 16.246094 16.167969 C 16.300781 16.144531 16.367188 16.160156 16.410156 16.203125 Z M 16.421875 19.777344 L 16.152344 19.507812 L 16.152344 24.652344 C 16.152344 24.894531 15.953125 25.09375 15.707031 25.09375 C 15.488281 25.09375 15.300781 24.9375 15.269531 24.71875 L 14.871094 21.894531 C 14.855469 21.796875 14.773438 21.726562 14.675781 21.726562 C 14.574219 21.726562 14.492188 21.796875 14.480469 21.894531 L 14.078125 24.714844 C 14.046875 24.933594 13.859375 25.09375 13.640625 25.09375 C 13.394531 25.09375 13.195312 24.894531 13.195312 24.652344 L 13.195312 16.308594 C 13.195312 16.246094 13.160156 16.191406 13.101562 16.167969 C 13.046875 16.144531 12.980469 16.160156 12.9375 16.203125 L 11.839844 17.296875 C 11.742188 17.398438 11.578125 17.398438 11.480469 17.296875 C 11.429688 17.25 11.402344 17.1875 11.402344 17.117188 C 11.402344 17.046875 11.429688 16.984375 11.480469 16.9375 L 13.207031 15.207031 C 13.230469 15.183594 13.261719 15.164062 13.292969 15.152344 C 13.292969 15.152344 13.296875 15.148438 13.300781 15.148438 C 13.320312 15.136719 13.347656 15.132812 13.371094 15.132812 L 15.976562 15.132812 C 16.003906 15.132812 16.027344 15.136719 16.050781 15.148438 C 16.050781 15.148438 16.054688 15.152344 16.054688 15.152344 C 16.089844 15.164062 16.117188 15.183594 16.140625 15.207031 L 16.703125 15.769531 C 16.753906 15.679688 16.8125 15.59375 16.875 15.515625 L 16.355469 14.996094 C 16.300781 14.941406 16.242188 14.902344 16.171875 14.871094 C 16.109375 14.84375 16.046875 14.832031 15.976562 14.832031 L 15.363281 14.832031 C 16.003906 14.5625 16.453125 13.925781 16.453125 13.191406 C 16.453125 12.207031 15.65625 11.410156 14.675781 11.410156 C 13.691406 11.410156 12.894531 12.207031 12.894531 13.191406 C 12.894531 13.925781 13.34375 14.5625 13.984375 14.832031 L 13.371094 14.832031 C 13.304688 14.832031 13.238281 14.84375 13.175781 14.871094 C 13.109375 14.902344 13.046875 14.941406 12.992188 14.996094 L 11.265625 16.722656 C 11.160156 16.828125 11.101562 16.96875 11.101562 17.117188 C 11.101562 17.265625 11.160156 17.40625 11.265625 17.511719 C 11.484375 17.730469 11.835938 17.730469 12.054688 17.511719 L 12.894531 16.671875 L 12.894531 24.652344 C 12.894531 25.0625 13.230469 25.398438 13.640625 25.398438 C 14.007812 25.398438 14.324219 25.125 14.378906 24.761719 L 14.675781 22.671875 L 14.96875 24.761719 C 15.027344 25.128906 15.335938 25.398438 15.707031 25.398438 C 16.042969 25.398438 16.328125 25.175781 16.421875 24.871094 C 16.421875 24.863281 16.421875 24.859375 16.421875 24.851562 Z M 13.195312 13.191406 C 13.195312 12.375 13.859375 11.710938 14.675781 11.710938 C 15.488281 11.710938 16.152344 12.375 16.152344 13.191406 C 16.152344 14.003906 15.488281 14.667969 14.675781 14.667969 C 13.859375 14.667969 13.195312 14.003906 13.195312 13.191406 Z M 13.195312 13.191406 " fill-opacity="1" fill-rule="nonzero"/></g></svg>