<svg xmlns="http://www.w3.org/2000/svg" xmlns:xlink="http://www.w3.org/1999/xlink" width="50" zoomAndPan="magnify" viewBox="0 0 37.5 37.499999" height="50" preserveAspectRatio="xMidYMid meet" version="1.0"><defs><clipPath id="0acb74ab9e"><path d="M 11.101562 11.101562 L 25.90625 11.101562 L 25.90625 25.90625 L 11.101562 25.90625 Z M 11.101562 11.101562 " clip-rule="nonzero"/></clipPath></defs><g clip-path="url(#0acb74ab9e)"><path fill="#db7093" d="M 19.820312 23.164062 C 19.746094 23.203125 19.65625 23.203125 19.589844 23.164062 L 18.835938 22.699219 L 20.640625 22.699219 Z M 25.308594 21.285156 L 20.042969 25.257812 C 19.851562 25.402344 19.605469 25.449219 19.367188 25.378906 L 14.355469 24.023438 C 14.261719 23.992188 14.167969 23.980469 14.070312 23.980469 C 14.066406 23.980469 14.066406 23.980469 14.0625 23.980469 L 14.0625 21.34375 L 15.234375 20.839844 C 15.542969 20.726562 15.882812 20.695312 16.210938 20.75 L 21.714844 21.640625 C 21.851562 21.660156 21.957031 21.78125 21.957031 21.921875 C 21.957031 21.957031 21.949219 21.992188 21.9375 22.027344 C 21.921875 22.0625 21.898438 22.097656 21.875 22.121094 C 21.820312 22.175781 21.746094 22.207031 21.671875 22.207031 L 17.972656 22.207031 C 17.972656 22.207031 17.972656 22.207031 17.96875 22.207031 L 17.023438 22.203125 C 16.886719 22.203125 16.777344 22.3125 16.777344 22.449219 C 16.773438 22.585938 16.886719 22.695312 17.023438 22.699219 L 17.902344 22.699219 L 19.335938 23.589844 C 19.453125 23.65625 19.578125 23.6875 19.703125 23.6875 C 19.828125 23.6875 19.949219 23.65625 20.0625 23.59375 L 21.644531 22.699219 L 21.671875 22.699219 C 21.875 22.699219 22.070312 22.621094 22.222656 22.472656 C 22.273438 22.421875 22.3125 22.363281 22.347656 22.304688 L 24.984375 20.8125 C 25.121094 20.734375 25.296875 20.785156 25.375 20.921875 C 25.398438 20.964844 25.410156 21.015625 25.410156 21.0625 C 25.410156 21.148438 25.371094 21.234375 25.308594 21.285156 Z M 13.570312 24.425781 C 13.570312 24.558594 13.457031 24.671875 13.324219 24.671875 L 11.84375 24.671875 C 11.707031 24.671875 11.59375 24.558594 11.59375 24.425781 L 11.59375 20.96875 C 11.59375 20.835938 11.707031 20.722656 11.84375 20.722656 L 13.324219 20.722656 C 13.457031 20.722656 13.570312 20.835938 13.570312 20.96875 L 13.570312 21.167969 C 13.570312 21.171875 13.566406 21.175781 13.566406 21.183594 L 13.570312 24.269531 Z M 18.265625 18.773438 C 18.257812 18.6875 18.257812 18.605469 18.257812 18.519531 C 18.257812 18.460938 18.257812 18.394531 18.261719 18.339844 C 18.265625 18.273438 18.269531 18.210938 18.273438 18.152344 C 18.382812 17 18.960938 15.691406 19.753906 14.8125 C 19.828125 14.726562 19.910156 14.640625 20 14.554688 L 23.421875 14.554688 C 24.417969 15.5 25.164062 17.1875 25.164062 18.519531 C 25.164062 19.234375 24.945312 19.921875 24.527344 20.503906 L 22.417969 21.695312 C 22.335938 21.417969 22.097656 21.199219 21.792969 21.152344 L 19.054688 20.710938 C 18.589844 20.15625 18.316406 19.488281 18.265625 18.773438 Z M 19.738281 13.570312 L 23.683594 13.570312 C 23.820312 13.570312 23.929688 13.679688 23.929688 13.816406 C 23.929688 13.953125 23.820312 14.0625 23.683594 14.0625 L 19.738281 14.0625 C 19.601562 14.0625 19.488281 13.953125 19.488281 13.816406 C 19.488281 13.679688 19.601562 13.570312 19.738281 13.570312 Z M 20 11.867188 C 20.304688 11.773438 20.96875 11.59375 21.710938 11.59375 C 22.457031 11.59375 23.121094 11.773438 23.421875 11.867188 L 23.039062 13.074219 L 20.382812 13.074219 Z M 25.804688 20.683594 C 25.683594 20.460938 25.46875 20.328125 25.234375 20.292969 C 25.511719 19.746094 25.65625 19.144531 25.65625 18.519531 C 25.65625 17.160156 24.988281 15.535156 24.023438 14.46875 C 24.261719 14.347656 24.425781 14.101562 24.425781 13.816406 C 24.425781 13.40625 24.09375 13.074219 23.683594 13.074219 L 23.554688 13.074219 L 23.914062 11.949219 C 23.976562 11.730469 23.859375 11.496094 23.636719 11.417969 C 23.277344 11.300781 22.546875 11.101562 21.710938 11.101562 C 20.875 11.101562 20.144531 11.300781 19.777344 11.421875 C 19.5625 11.496094 19.441406 11.730469 19.507812 11.957031 L 19.867188 13.074219 L 19.738281 13.074219 C 19.328125 13.074219 18.996094 13.40625 18.996094 13.816406 C 18.996094 14.101562 19.160156 14.347656 19.398438 14.46875 C 19.394531 14.476562 19.386719 14.480469 19.382812 14.488281 C 18.53125 15.433594 17.898438 16.851562 17.78125 18.109375 C 17.777344 18.179688 17.769531 18.25 17.769531 18.316406 C 17.765625 18.382812 17.761719 18.453125 17.761719 18.519531 C 17.761719 18.617188 17.765625 18.714844 17.773438 18.808594 C 17.820312 19.453125 18.019531 20.058594 18.359375 20.597656 L 16.289062 20.261719 C 15.878906 20.195312 15.453125 20.234375 15.054688 20.378906 L 14.046875 20.8125 C 13.972656 20.480469 13.675781 20.230469 13.324219 20.230469 L 11.84375 20.230469 C 11.433594 20.230469 11.101562 20.5625 11.101562 20.96875 L 11.101562 24.425781 C 11.101562 24.832031 11.433594 25.164062 11.84375 25.164062 L 13.324219 25.164062 C 13.714844 25.164062 14.03125 24.859375 14.058594 24.472656 C 14.109375 24.472656 14.164062 24.480469 14.21875 24.496094 L 19.230469 25.851562 C 19.347656 25.886719 19.46875 25.902344 19.585938 25.902344 C 19.859375 25.902344 20.125 25.816406 20.34375 25.648438 L 25.609375 21.675781 C 25.792969 21.527344 25.90625 21.300781 25.90625 21.0625 C 25.90625 20.933594 25.871094 20.800781 25.808594 20.683594 C 25.808594 20.683594 25.808594 20.683594 25.804688 20.683594 " fill-opacity="1" fill-rule="nonzero"/></g><path fill="#db7093" d="M 12.828125 21.21875 L 12.335938 21.21875 C 12.199219 21.21875 12.089844 21.328125 12.089844 21.464844 C 12.089844 21.601562 12.199219 21.710938 12.335938 21.710938 L 12.828125 21.710938 C 12.964844 21.710938 13.074219 21.601562 13.074219 21.464844 C 13.074219 21.328125 12.964844 21.21875 12.828125 21.21875 " fill-opacity="1" fill-rule="nonzero"/><path fill="#db7093" d="M 12.828125 23.683594 L 12.335938 23.683594 C 12.199219 23.683594 12.089844 23.796875 12.089844 23.929688 C 12.089844 24.066406 12.199219 24.175781 12.335938 24.175781 L 12.828125 24.175781 C 12.964844 24.175781 13.074219 24.066406 13.074219 23.929688 C 13.074219 23.796875 12.964844 23.683594 12.828125 23.683594 " fill-opacity="1" fill-rule="nonzero"/><path fill="#db7093" d="M 20.96875 16.777344 C 20.96875 16.457031 21.175781 16.183594 21.464844 16.082031 L 21.464844 17.472656 C 21.175781 17.367188 20.96875 17.097656 20.96875 16.777344 Z M 22.449219 18.75 C 22.449219 19.070312 22.242188 19.34375 21.957031 19.445312 L 21.957031 18.054688 C 22.242188 18.15625 22.449219 18.429688 22.449219 18.75 Z M 21.957031 19.984375 L 21.957031 19.957031 C 22.519531 19.84375 22.945312 19.34375 22.945312 18.75 C 22.945312 18.15625 22.519531 17.65625 21.957031 17.542969 L 21.957031 16.082031 C 22.242188 16.183594 22.449219 16.457031 22.449219 16.777344 C 22.449219 16.914062 22.5625 17.023438 22.699219 17.023438 C 22.832031 17.023438 22.945312 16.914062 22.945312 16.777344 C 22.945312 16.179688 22.519531 15.683594 21.957031 15.566406 L 21.957031 15.542969 C 21.957031 15.40625 21.847656 15.296875 21.710938 15.296875 C 21.574219 15.296875 21.464844 15.40625 21.464844 15.542969 L 21.464844 15.566406 C 20.902344 15.683594 20.476562 16.179688 20.476562 16.777344 C 20.476562 17.371094 20.902344 17.871094 21.464844 17.984375 L 21.464844 19.445312 C 21.175781 19.34375 20.96875 19.070312 20.96875 18.75 C 20.96875 18.613281 20.859375 18.503906 20.722656 18.503906 C 20.585938 18.503906 20.476562 18.613281 20.476562 18.75 C 20.476562 19.34375 20.902344 19.84375 21.464844 19.957031 L 21.464844 19.984375 C 21.464844 20.121094 21.574219 20.230469 21.710938 20.230469 C 21.847656 20.230469 21.957031 20.121094 21.957031 19.984375 " fill-opacity="1" fill-rule="nonzero"/></svg>